HIERARCHY
ROOT Hips
{
	OFFSET 0.00000 0.00000 0.00000
	CHANNELS 6 Xposition Yposition Zposition Zrotation Yrotation Xrotation 
	JOINT LHipJoint
	{
		OFFSET 0 0 0
		CHANNELS 3 Zrotation Yrotation Xrotation
		JOINT LeftHip
		{
			OFFSET 3.13874 -1.57224 1.49786
			CHANNELS 3 Zrotation Yrotation Xrotation
			JOINT LeftKnee
			{
				OFFSET 2.10955 -5.79594 0.00000
				CHANNELS 3 Zrotation Yrotation Xrotation
				JOINT LeftAnkle
				{
					OFFSET 2.41843 -6.64458 0.00000
					CHANNELS 3 Zrotation Yrotation Xrotation
					JOINT LeftToe
					{
						OFFSET 0.04713 -0.12948 1.66229
						CHANNELS 3 Zrotation Yrotation Xrotation
						End Site
						{
							OFFSET 0.00000 -0.00000 0.85167
						}
					}
				}
			}
		}
	}
	JOINT RHipJoint
	{
		OFFSET 0 0 0
		CHANNELS 3 Zrotation Yrotation Xrotation
		JOINT RightHip
		{
			OFFSET -3.13988 -1.57224 1.49786
			CHANNELS 3 Zrotation Yrotation Xrotation
			JOINT RightKnee
			{
				OFFSET -2.15006 -5.90725 0.00000
				CHANNELS 3 Zrotation Yrotation Xrotation
				JOINT RightAnkle
				{
					OFFSET -2.34496 -6.44273 0.00000
					CHANNELS 3 Zrotation Yrotation Xrotation
					JOINT RightToe
					{
						OFFSET -0.08699 -0.23900 1.55223
						CHANNELS 3 Zrotation Yrotation Xrotation
						End Site
						{
							OFFSET -0.00000 -0.00000 0.80281
						}
					}
				}
			}
		}
	}
	JOINT lowerback
	{
		OFFSET 0 0 0
		CHANNELS 3 Zrotation Yrotation Xrotation
		JOINT Chest
		{
			OFFSET 0.01292 1.96517 -0.16495
			CHANNELS 3 Zrotation Yrotation Xrotation
			JOINT Chest2
			{
				OFFSET 0.02122 1.88666 0.19706
				CHANNELS 3 Zrotation Yrotation Xrotation
				JOINT lowerneck
				{
					OFFSET 0 0 0
					CHANNELS 3 Zrotation Yrotation Xrotation
					JOINT Neck
					{
						OFFSET -0.01683 1.81591 0.07903
						CHANNELS 3 Zrotation Yrotation Xrotation
						JOINT Head
						{
							OFFSET 0.00815 1.74013 -0.47700
							CHANNELS 3 Zrotation Yrotation Xrotation
							End Site
							{
								OFFSET -0.00204 1.83225 -0.16933
							}
						}
					}
				}
				JOINT LeftCollar
				{
					OFFSET 0 0 0
					CHANNELS 3 Zrotation Yrotation Xrotation
					JOINT LeftShoulder
					{
						OFFSET 3.38482 1.41533 0.19802
CHANNELS 3 Zrotation Xrotation Yrotation
						JOINT LeftElbow
						{
OFFSET 0 -4.327120 0.000000
CHANNELS 3 Zrotation Xrotation Yrotation
							JOINT LeftWrist
							{
OFFSET 0 -3.285870 -0.000000
CHANNELS 3 Zrotation Xrotation Yrotation
								JOINT lhand
								{
									OFFSET 0 0 0
CHANNELS 3 Zrotation Xrotation Yrotation
									JOINT LFingers
									{
OFFSET 0 -0.433160 -0.000000
CHANNELS 3 Zrotation Xrotation Yrotation
										End Site
										{
OFFSET 0 -0.349220 -0.000000
										}
									}
								}
								JOINT LThumb
								{
OFFSET 0 0.000000 0.000000
CHANNELS 3 Zrotation Xrotation Yrotation
									End Site
									{
OFFSET 0 -0.354560 0.354560
									}
								}
							}
						}
					}
				}
				JOINT RightCollar
				{
					OFFSET 0 0 0
					CHANNELS 3 Zrotation Yrotation Xrotation
					JOINT RightShoulder
					{
						OFFSET -3.09725 1.62858 -0.14144
CHANNELS 3 Zrotation Xrotation Yrotation
						JOINT RightElbow
						{
OFFSET 0 -4.291040 0.000000
CHANNELS 3 Zrotation Xrotation Yrotation
							JOINT RightWrist
							{
OFFSET 0 -3.227200 -0.000000
CHANNELS 3 Zrotation Xrotation Yrotation
								JOINT rhand
								{
									OFFSET 0 0 0
CHANNELS 3 Zrotation Xrotation Yrotation
									JOINT RFingers
									{
OFFSET 0 -0.543620 -0.000000
CHANNELS 3 Zrotation Xrotation Yrotation
										End Site
										{
OFFSET 0 -0.438280 -0.000000
										}
									}
								}
								JOINT RThumb
								{
OFFSET 0 0.000000 0.000000
CHANNELS 3 Zrotation Xrotation Yrotation
									End Site
									{
OFFSET 0 -0.444970 0.444970
									}
								}
							}
						}
					}
				}
			}
		}
	}
}
MOTION
Frames: 11
Frame Time: 0.008333333333333333
-25.737214 15.814557 4.943841 -187.980938 22.720480 -171.990843 0.000000 0.000000 0.000000 -34.115021 -19.030613 6.536572 0.042858 -1.334149 -3.668818 0.068290 0.665324 -5.259162 13.165007 -18.840954 -69.637139 0.000000 0.000000 0.000000 5.240703 1.725212 -18.853272 -1.860976 -8.569247 24.457571 -3.178205 -0.133749 -33.874238 -0.747388 5.521602 -15.402584 1.249372 4.755507 8.262572 -7.256955 6.810129 -10.113584 -10.452937 2.912052 -14.880841 18.971223 9.908872 -4.108193 -5.670517 16.415207 27.131991 -2.940108 9.793321 11.570661 0.000000 0.000000 0.000000 22.519646 16.773475 -22.714638 12.427514 -20.442372 2.249588 25.653786 23.729494 -32.197849 0.000000 0.000000 0.000000 -7.125000 0.000000 0.000000 -8.135969 64.740776 3.897872 0.000000 0.000000 0.000000 -15.078709 2.866019 29.522896 -16.877025 -26.688352 -4.035756 -32.948434 -2.188618 18.269526 0.000000 0.000000 0.000000 7.125000 0.000000 0.000000 -4.959543 51.388621 0.782251
-25.632559 15.802364 4.999832 -187.894234 20.634554 -171.931938 0.000000 0.000000 0.000000 -33.538636 -19.422465 6.116282 0.030191 -1.121145 -3.082216 0.061080 -0.860318 -4.457407 13.174148 -18.844170 -69.665471 0.000000 0.000000 0.000000 5.552983 2.708528 -18.043614 -1.995005 -8.855317 25.344021 -3.251925 -0.243261 -34.303087 -0.798218 5.702498 -15.923628 0.981867 4.686470 8.603374 -7.441180 6.662942 -9.938293 -10.522636 2.861107 -14.920411 18.747070 9.700909 -4.570837 -5.261615 15.950219 27.186342 -2.806237 9.598448 11.554737 0.000000 0.000000 0.000000 23.079756 16.742763 -26.571408 12.771976 -20.952124 2.371223 26.556202 25.481584 -31.198225 0.000000 0.000000 0.000000 -7.125000 0.000000 0.000000 -6.362372 63.969712 2.932654 0.000000 0.000000 0.000000 -14.669608 3.474465 27.725256 -18.564325 -28.870908 -4.820165 -33.612809 -5.529288 18.087054 0.000000 0.000000 0.000000 7.125000 0.000000 0.000000 -5.666531 51.307245 0.882691
-25.515368 15.787717 5.057694 -187.820528 18.295513 -171.923656 0.000000 0.000000 0.000000 -32.973040 -19.973251 5.743281 0.019484 -0.897710 -2.467343 0.036668 -2.396646 -3.579302 13.187003 -18.848628 -69.705233 0.000000 0.000000 0.000000 5.819806 3.485491 -17.144890 -2.132354 -9.135984 26.222092 -3.288175 -0.115199 -34.456431 -0.829813 5.811642 -16.238794 0.697640 4.575893 8.998051 -7.564685 6.457115 -9.760832 -10.509046 2.783907 -15.010454 18.478501 9.955778 -5.066773 -4.952717 15.158790 27.291405 -2.795703 8.942206 11.561046 0.000000 0.000000 0.000000 23.305493 16.396178 -29.726060 13.064746 -21.381939 2.476928 27.358371 26.998019 -30.508488 0.000000 0.000000 0.000000 -7.125000 0.000000 0.000000 -4.960383 63.475941 2.226328 0.000000 0.000000 0.000000 -14.240244 4.362762 26.523641 -20.231598 -30.916406 -5.651767 -34.170843 -9.009331 17.678040 0.000000 0.000000 0.000000 7.125000 0.000000 0.000000 -6.274953 50.941835 0.921012
-25.385936 15.774809 5.115985 -187.629753 15.747689 -171.889474 0.000000 0.000000 0.000000 -32.252876 -20.735320 5.386972 0.010876 -0.666438 -1.831451 -0.001225 -3.897211 -2.722033 13.205131 -18.855019 -69.761547 0.000000 0.000000 0.000000 6.216464 4.104807 -16.248387 -2.280498 -9.426543 27.139506 -3.275322 0.209663 -34.290943 -0.840631 5.848470 -16.345324 0.499408 4.440176 9.371487 -7.603552 6.232617 -9.594355 -10.436628 2.692133 -15.102307 17.971258 12.162220 -5.578881 -4.104939 13.530558 27.748109 -2.835548 6.878779 11.646895 0.000000 0.000000 0.000000 23.151151 15.753921 -31.988743 13.255051 -21.659677 2.546670 28.112630 28.199857 -30.247223 0.000000 0.000000 0.000000 -7.125000 0.000000 0.000000 -3.884343 63.408522 1.735827 0.000000 0.000000 0.000000 -13.802138 5.400996 25.909552 -21.637580 -32.560895 -6.391535 -34.670260 -12.095322 17.038396 0.000000 0.000000 0.000000 7.125000 0.000000 0.000000 -6.824573 50.292409 0.892350
-25.243716 15.767057 5.172997 -187.237920 13.027058 -171.786372 0.000000 0.000000 0.000000 -31.270070 -21.742622 5.028016 0.004512 -0.425464 -1.169059 -0.047380 -5.271681 -1.935427 13.197044 -18.852173 -69.736310 0.000000 0.000000 0.000000 6.875319 4.560866 -15.390254 -2.433935 -9.716170 28.062968 -3.187248 0.611965 -33.702456 -0.875962 5.966611 -16.687708 0.468695 4.298745 9.669809 -7.563056 6.031697 -9.455757 -10.359431 2.598661 -15.165958 17.527320 11.736479 -6.028947 -4.017838 12.923486 27.896892 -2.815706 6.573984 11.664746 0.000000 0.000000 0.000000 22.639450 14.857950 -33.392825 13.323123 -21.758795 2.571869 28.598907 28.938494 -30.309111 0.000000 0.000000 0.000000 -7.125000 0.000000 0.000000 -3.313087 63.606039 1.495479 0.000000 0.000000 0.000000 -13.319176 6.499611 25.786509 -22.586947 -33.632726 -6.908739 -35.051933 -14.358180 16.294354 0.000000 0.000000 0.000000 7.125000 0.000000 0.000000 -7.242897 49.492390 0.805236
-25.087816 15.766598 5.227957 -186.614746 10.162481 -171.604514 0.000000 0.000000 0.000000 -29.983622 -23.072944 4.669239 0.000709 -0.173466 -0.476630 -0.093380 -6.373038 -1.263015 13.139176 -18.831862 -69.557344 0.000000 0.000000 0.000000 7.868130 4.863670 -14.553193 -2.572646 -9.968761 28.875739 -3.011402 0.987633 -32.636919 -0.981686 6.306795 -17.677275 0.555040 4.180196 9.850987 -7.436577 5.887748 -9.345978 -10.241647 2.526974 -15.175905 16.783181 11.355177 -6.510714 -3.531756 12.295354 28.249182 -2.605338 6.265010 11.717641 0.000000 0.000000 0.000000 21.827766 13.746416 -34.232212 13.308170 -21.737102 2.566326 28.897468 29.212387 -30.685168 0.000000 0.000000 0.000000 -7.125000 0.000000 0.000000 -3.140114 64.083110 1.452540 0.000000 0.000000 0.000000 -12.774754 7.568227 26.058909 -22.933987 -34.016526 -7.101358 -35.107838 -15.462477 15.662676 0.000000 0.000000 0.000000 7.125000 0.000000 0.000000 -7.316002 48.760061 0.681837
-24.915552 15.775430 5.280405 -185.733813 7.191149 -171.358900 0.000000 0.000000 0.000000 -28.352636 -24.846804 4.332484 0.000349 0.082549 0.226773 -0.121518 -6.923355 -0.819831 13.027559 -18.792012 -69.210937 0.000000 0.000000 0.000000 9.289015 5.134180 -13.635597 -2.658195 -10.120045 29.366355 -2.768062 1.396637 -31.145285 -1.144312 6.789763 -19.095201 0.730166 4.084401 9.891314 -7.188760 5.796995 -9.273234 -10.023910 2.479515 -15.133914 15.878338 11.000845 -6.978645 -2.748356 11.637501 28.747006 -2.263379 5.954542 11.801717 0.000000 0.000000 0.000000 20.731852 12.557594 -34.910274 13.308288 -21.737224 2.566307 29.391972 29.050080 -31.307375 0.000000 0.000000 0.000000 -7.125000 0.000000 0.000000 -2.853023 64.874946 1.371352 0.000000 0.000000 0.000000 -12.223966 8.539086 26.985443 -22.599195 -33.646667 -6.915311 -34.737918 -15.308368 15.323525 0.000000 0.000000 0.000000 7.125000 0.000000 0.000000 -6.953228 48.296772 0.568494
-24.730094 15.791784 5.330625 -184.695202 4.181895 -171.102983 0.000000 0.000000 0.000000 -26.476270 -26.914108 3.983347 0.002923 0.332786 0.914324 -0.129892 -7.026102 -0.576936 12.911925 -18.750081 -68.851706 0.000000 0.000000 0.000000 11.037236 5.427214 -12.602737 -2.678729 -10.155864 29.482911 -2.500028 1.801393 -29.450992 -1.372128 7.407071 -20.929875 0.903080 3.998295 9.834516 -6.825843 5.724343 -9.226740 -9.663041 2.447374 -15.068947 15.108239 10.612946 -7.353596 -2.109002 10.968392 29.185251 -1.998207 5.640138 11.874970 0.000000 0.000000 0.000000 19.475616 11.462881 -35.926319 13.432669 -21.917676 2.612654 29.856467 28.284173 -31.977005 0.000000 0.000000 0.000000 -7.125000 0.000000 0.000000 -2.634523 65.710226 1.317829 0.000000 0.000000 0.000000 -11.746508 9.392042 28.645793 -21.831396 -32.783509 -6.495419 -34.058602 -14.420499 15.249753 0.000000 0.000000 0.000000 7.125000 0.000000 0.000000 -6.279528 48.094679 0.481569
-24.533518 15.815160 5.377975 -183.560776 1.158972 -170.878851 0.000000 0.000000 0.000000 -24.406193 -29.133709 3.560295 0.008040 0.575286 1.580859 -0.120369 -6.741317 -0.504490 12.844030 -18.725099 -68.640476 0.000000 0.000000 0.000000 13.039804 5.695918 -11.440206 -2.623837 -10.059550 29.169835 -2.226038 2.170748 -27.652003 -1.704250 8.215605 -23.373791 1.029939 3.904487 9.707703 -6.344441 5.638033 -9.193901 -9.128819 2.419690 -14.992530 14.622784 10.171835 -7.708460 -1.821271 10.284714 29.567832 -1.907289 5.314026 11.973433 0.000000 0.000000 0.000000 18.147553 10.581756 -37.680979 13.765835 -22.398671 2.738413 29.725988 26.550464 -32.790026 0.000000 0.000000 0.000000 -7.125000 0.000000 0.000000 -3.312008 66.520462 1.720877 0.000000 0.000000 0.000000 -11.393748 10.117292 31.082484 -20.822955 -31.619103 -5.957696 -33.050743 -13.106801 15.330234 0.000000 0.000000 0.000000 7.125000 0.000000 0.000000 -5.278034 48.019884 0.394388
-24.327858 15.845458 5.421959 -182.380903 -1.872766 -170.715274 0.000000 0.000000 0.000000 -22.148301 -31.287422 2.912158 0.016283 0.821531 2.257840 -0.101417 -6.214399 -0.518767 12.872331 -18.735582 -68.728601 0.000000 0.000000 0.000000 15.237545 5.957478 -10.092021 -2.479894 -9.800740 28.334419 -1.964570 2.569854 -25.833484 -2.151448 9.171590 -26.336012 1.265943 4.809097 9.539086 -5.898451 5.313051 -9.072714 -8.461482 1.624580 -14.782340 14.421766 9.676467 -8.129269 -1.850769 9.561407 29.929507 -1.980686 4.968959 12.117916 0.000000 0.000000 0.000000 16.964049 9.965850 -40.638077 14.385692 -23.282757 2.979244 27.626266 22.548731 -32.810909 0.000000 0.000000 0.000000 -7.125000 0.000000 0.000000 -6.071085 65.929676 3.062577 0.000000 0.000000 0.000000 -11.110550 10.718732 34.056767 -19.739808 -30.326553 -5.399815 -31.491551 -11.424928 15.434864 0.000000 0.000000 0.000000 7.125000 0.000000 0.000000 -3.737148 47.886318 0.267495
-24.115594 15.881375 5.462889 -181.208035 -4.928331 -170.630496 0.000000 0.000000 0.000000 -19.695375 -33.104854 1.799108 0.029594 1.103694 3.034332 -0.092107 -5.865622 -0.362459 12.988255 -18.777833 -69.088960 0.000000 0.000000 0.000000 17.547169 6.244999 -8.507662 -2.240666 -9.347262 26.890163 -1.734023 3.201412 -24.081391 -2.635671 10.074588 -29.223990 1.301093 4.625276 9.341068 -5.297438 5.218391 -9.054613 -7.753581 1.658445 -14.695792 14.325671 9.171261 -8.551828 -2.085822 8.882008 30.195154 -2.142661 4.636941 12.246762 0.000000 0.000000 0.000000 16.030835 9.581916 -44.568083 15.286740 -24.541212 3.345776 23.801292 17.113018 -31.733374 0.000000 0.000000 0.000000 -7.125000 0.000000 0.000000 -10.038175 63.771096 4.565556 0.000000 0.000000 0.000000 -10.843507 11.151276 37.161336 -18.683198 -29.020352 -4.877575 -29.222250 -9.366740 15.275306 0.000000 0.000000 0.000000 7.125000 0.000000 0.000000 -1.547592 47.353007 0.097070
